PathFileType	3	(X/Y/Z)	D:\Vicon Database\Healthy Subjects\S0040\Jan. 30, 2020\Force Plate Walk 1.trc
DataRate	CameraRate	NumFrames	NumMarkers	Units	OrigDataRate	OrigDataStartFrame	OrigNumFrames
100.0	100.0	4	53	mm	100.0	464	322	
Frame#	Time	right_foot_cluster2			right_foot_cluster3			sternum_cluster1			sternum_cluster2			sternum_cluster3			left_asis			right_asis			left_psis			right_psis			sacrum_cluster1			sacrum_cluster2			sacrum_cluster3			left_lat_femoral_epicondyle			left_anterior_thigh15			left_anterior_thigh25			left_anterior_thigh50			left_lateral_thigh25			left_lateral_thigh50			left_thigh_cluster1			left_thigh_cluster2			left_thigh_cluster3			left_fibular_head			left_tibial_tuberosity			left_anterior_shank30			left_lateral_malleolus			left_shank_cluster1			left_shank_cluster2			left_shank_cluster3			left_heel			left_metatarsal2			left_foot_cluster1			left_foot_cluster2			left_foot_cluster3			right_lat_femoral_epicondyle			right_anterior_thigh15			right_anterior_thigh25			right_anterior_thigh50			right_lateral_thigh25			right_lateral_thigh50			right_thigh_cluster1			right_thigh_cluster2			right_thigh_cluster3			right_fibular_head			right_tibial_tuberosity			right_lateral_distal_shank			right_anterior_shank30			right_lateral_malleolus			right_shank_cluster1			right_shank_cluster2			right_shank_cluster3			right_heel			right_metatarsal2			right_foot_cluster1			
		X1	Y1	Z1	X2	Y2	Z2	X3	Y3	Z3	X4	Y4	Z4	X5	Y5	Z5	X6	Y6	Z6	X7	Y7	Z7	X8	Y8	Z8	X9	Y9	Z9	X10	Y10	Z10	X11	Y11	Z11	X12	Y12	Z12	X13	Y13	Z13	X14	Y14	Z14	X15	Y15	Z15	X16	Y16	Z16	X17	Y17	Z17	X18	Y18	Z18	X19	Y19	Z19	X20	Y20	Z20	X21	Y21	Z21	X22	Y22	Z22	X23	Y23	Z23	X24	Y24	Z24	X25	Y25	Z25	X26	Y26	Z26	X27	Y27	Z27	X28	Y28	Z28	X29	Y29	Z29	X30	Y30	Z30	X31	Y31	Z31	X32	Y32	Z32	X33	Y33	Z33	X34	Y34	Z34	X35	Y35	Z35	X36	Y36	Z36	X37	Y37	Z37	X38	Y38	Z38	X39	Y39	Z39	X40	Y40	Z40	X41	Y41	Z41	X42	Y42	Z42	X43	Y43	Z43	X44	Y44	Z44	X45	Y45	Z45	X46	Y46	Z46	X47	Y47	Z47	X48	Y48	Z48	X49	Y49	Z49	X50	Y50	Z50	X51	Y51	Z51	X52	Y52	Z52	X53	Y53	Z53	
464	4.63	1933.6141	120.18745	-164.00832	1932.6134	122.44718	-200.97099	1538.9615	1426.406	-83.198647	1526.9481	1398.8752	-74.394226	1527.6843	1401.2721	-112.39708	1546.333	1057.4568	31.354227	1548.2335	1047.4143	-219.50607	1714.9122	1060.8594	-16.151169	1716.0582	1058.8374	-134.53851	1726.0431	1116.7476	-84.483223	1731.2584	1090.6145	-95.522568	1734.3367	1086.9509	-56.230045	1463.0459	544.99158	52.169064	1401.6292	649.92993	-4.1936116	1411.953	735.24518	13.285347	1456.2319	862.71442	33.791893	1508.691	690.94507	78.070877	1549.5627	833.57556	106.34901	1537.8098	787.70325	112.29317	1532.4536	758.74188	108.5509	1499.6919	778.06354	110.36604	1446.0675	466.35013	54.740284	1396.6796	465.08698	-5.5532203	1416.8093	210.29608	-20.173166	1468.9373	97.03727	9.8290491	1398.7595	407.77271	-35.024193	1392.7787	380.12164	-27.881186	1411.6129	381.1297	-61.563503	1542.2079	62.675728	-27.032415	1324.2167	72.666199	-27.828646	1386.1	118.16985	-22.036207	1361.6803	102.9304	-11.409197	1357.486	108.53199	-49.28804	1630.7582	500.2305	-245.28833	1526.4199	570.90149	-197.86655	1504.728	655.31421	-191.28485	1504.7401	790.20068	-190.37012	1611.9058	655.38196	-263.10904	1607.3129	801.51733	-278.04376	1618.7225	753.06567	-285.47321	1608.2433	726.11169	-284.83145	1646.4242	725.73602	-276.8913	1676.5559	456.37509	-250.95096	1639.4127	409.62082	-209.17618	1891.205	298.28531	-225.17735	1849.5959	267.24948	-184.47847	1967.8503	233.75916	-210.59094	1694.5149	364.46933	-151.54953	1718.8206	351.17874	-143.76881	1709.0388	338.3476	-177.97426	2020.0983	292.888	-167.81226	1958.2534	82.377357	-173.13782	1925.3372	147.70538	-172.61333
465	4.64	1906.5366	126.99876	-161.94632	1904.2721	129.18358	-199.05943	1524.4563	1427.9637	-82.996803	1512.5795	1400.3243	-74.315651	1513.4243	1402.8096	-112.32553	1531.0663	1059.3624	31.432629	1534.6606	1048.7004	-219.63058	1700.0751	1062.425	-15.578965	1702.0186	1059.234	-133.88484	1711.462	1117.4084	-84.19297	1716.8022	1091.368	-95.10434	1719.6141	1088.0359	-55.688572	1455.941	544.0376	52.953777	1391.4901	647.73553	-2.130487	1400.2542	733.55737	14.526584	1441.9377	862.4754	34.619331	1498.7909	691.0191	78.664696	1536.0347	834.73578	106.91468	1525.5779	788.58466	112.6823	1520.5515	759.57745	109.08231	1486.8975	778.52271	111.05295	1440.1576	465.5	55.967567	1389.3356	463.20474	-2.9433165	1414.2146	208.97713	-19.325281	1468.694	97.012123	9.9112034	1391.7217	406.078	-32.987103	1386.4077	378.3266	-25.91288	1404.5018	379.68085	-59.750473	1542.189	62.89415	-26.845444	1323.972	72.026558	-27.754055	1385.7772	117.79378	-21.847254	1361.1677	102.80563	-11.31084	1357.1458	108.11785	-49.203022	1602.4712	500.8179	-245.50629	1501.1819	573.29413	-196.95447	1482.4301	658.50073	-190.63777	1486.7468	793.20807	-190.03403	1589.2588	655.65228	-263.23758	1589.77	801.7746	-277.59744	1599.2135	753.2738	-285.14349	1588.1019	726.63873	-284.62845	1626.0458	725.16022	-276.29532	1647.1914	457.19687	-250.97353	1610.6294	410.41058	-208.73671	1864.0834	303.26706	-224.90167	1821.2499	270.39642	-184.50998	1941.5607	239.73122	-210.26427	1666.2649	365.06006	-151.22792	1690.8726	352.36362	-143.72733	1681.9143	339.60648	-178.09833	1995.3693	298.08633	-168.87889	1930.356	88.367455	-170.39752	1897.7202	154.85176	-170.69072
466	4.65	1875.8676	133.12509	-159.29498	1872.8593	134.97839	-196.54417	1510.1124	1429.6394	-83.024483	1498.0593	1402.0638	-74.362587	1499.2854	1404.5544	-112.41536	1515.9078	1061.1689	31.335167	1521.337	1050.2771	-219.92738	1685.4042	1064.202	-14.622696	1688.1688	1060.0548	-132.96117	1696.7462	1118.6627	-83.722054	1702.5609	1092.6698	-94.187469	1704.8168	1089.3783	-54.90575	1449.5784	543.07721	53.472229	1382.2604	645.09558	-0.098280773	1389.1805	731.13196	16.205429	1428.9218	861.68762	35.276333	1489.5887	690.85754	79.001144	1523.1062	835.72125	107.27259	1513.8475	789.24878	113.04401	1509.2715	760.30682	109.22246	1475.009	778.52655	111.20993	1434.5731	464.5484	56.944626	1382.9647	461.35699	-0.97512984	1412.0282	207.89502	-18.676102	1468.427	96.974709	9.9254761	1385.5208	404.49173	-31.660616	1380.8357	376.74615	-24.382814	1398.323	378.45123	-58.503624	1542.027	62.935108	-26.931227	1323.7876	71.510071	-27.715117	1385.4393	117.5791	-21.752335	1360.8763	102.4771	-11.26013	1357.1116	107.80446	-49.280849	1574.0244	502.26242	-245.76443	1475.201	576.98413	-195.73465	1460.4854	662.29852	-189.77156	1468.8898	796.68121	-189.64499	1566.8851	656.65564	-262.92505	1572.71	802.65411	-276.95776	1579.8853	753.98285	-284.71283	1568.0936	727.71997	-284.35184	1605.8556	725.22217	-275.4957	1618.5547	458.7811	-250.83861	1581.5214	411.69656	-208.15665	1836.278	307.92581	-224.23383	1794.5751	274.90848	-184.26868	1913.8419	243.75822	-209.57106	1636.7773	367.38177	-152.31926	1662.665	354.46973	-143.22456	1653.9034	341.48129	-177.73833	1970.4575	301.29608	-169.63246	1897.1028	93.895317	-168.50571	1868.0458	161.23553	-168.13525
467	4.66	1842.777	137.71268	-156.55157	1839.7899	139.15941	-193.98923	1495.9501	1431.4493	-83.187973	1483.8679	1403.9186	-74.608795	1485.2076	1406.5205	-112.65517	1500.9161	1062.9232	31.039749	1508.1296	1052.2367	-220.39629	1670.689	1066.0421	-13.607007	1674.3911	1061.3849	-131.89804	1682.3655	1119.9929	-82.949043	1688.4419	1094.2273	-93.051796	1690.4994	1091.2007	-53.690903	1443.5863	542.30219	53.401569	1373.9636	642.58594	1.2898037	1378.9104	728.53656	17.72179	1416.3693	860.81464	35.861965	1480.7378	690.79669	79.183098	1510.7648	836.56537	107.12425	1502.9364	789.65778	113.19343	1498.6908	760.48218	109.24687	1464.4529	778.2981	111.73959	1429.2272	463.82449	57.391949	1377.3771	459.81747	0.047439829	1410.4327	206.9673	-18.111485	1468.1451	97.047417	9.9369345	1380.4916	403.11621	-30.989298	1376.3987	375.30435	-23.741997	1394.0845	377.29135	-58.042259	1541.9548	63.079044	-26.902836	1323.6121	71.057388	-27.722902	1385.1281	117.4149	-21.672705	1360.5983	102.18153	-11.254514	1356.9412	107.39515	-49.402901	1546.2191	504.63516	-245.45204	1450.8145	581.29559	-194.83838	1438.7904	666.75909	-188.9136	1451.2124	800.67834	-189.34442	1546.2837	658.70935	-261.69501	1555.2622	804.23645	-276.22849	1561.4728	755.43524	-283.87753	1547.9034	729.43683	-284.04706	1586.1161	725.95593	-274.51144	1589.4658	461.03198	-250.66147	1552.3842	413.67868	-207.56561	1807.5975	311.10471	-223.67035	1764.7931	277.15823	-183.24596	1884.1066	245.71584	-208.61186	1608.9551	369.69324	-151.0127	1634.0297	357.16452	-142.61024	1624.9734	343.73096	-176.79536	1943.5486	301.99173	-171.05138	1864.1156	97.394066	-165.83986	1836.2737	166.01225	-165.71938
